<svg xmlns="http://www.w3.org/2000/svg" viewBox="0 0 32 32">
  <defs>
    <linearGradient id="faviconGradient" x1="0%" y1="0%" x2="100%" y2="100%">
      <stop offset="0%" style="stop-color:#10B981"/>
      <stop offset="50%" style="stop-color:#059669"/>
      <stop offset="100%" style="stop-color:#047857"/>
    </linearGradient>
  </defs>
  <circle cx="16" cy="16" r="15" fill="url(#faviconGradient)" stroke="#065F46" stroke-width="1"/>
  <g transform="translate(16,16)">
    <line x1="0" y1="-10" x2="0" y2="10" stroke="#FFFFFF" stroke-width="2" stroke-linecap="round"/>
    <path d="M-4-5Q-4-7-2-7L2-7Q4-7 4-5Q4-3 2-3L-2-3Q-4-3-4 0Q-4 2-2 2L2 2Q4 2 4 5Q4 7 2 7L-2 7Q-4 7-4 5" 
          stroke="#FFFFFF" 
          stroke-width="2" 
          fill="none" 
          stroke-linecap="round" 
          stroke-linejoin="round"/>
  </g>
  <ellipse cx="12" cy="10" rx="2" ry="3" fill="#FFFFFF" opacity="0.2" transform="rotate(-45 12 10)"/>
</svg>